<svg width="22" height="24" viewBox="0 0 22 24" fill="none" xmlns="http://www.w3.org/2000/svg">
<path d="M10.9999 0C8.61293 0 6.32374 0.948211 4.63592 2.63604C2.94809 4.32387 1.99988 6.61305 1.99988 9V13.803L0.0708792 18.629C0.0102522 18.7808 -0.0122613 18.9451 0.00530885 19.1075C0.022879 19.27 0.0799969 19.4257 0.171665 19.561C0.263334 19.6962 0.38676 19.807 0.531142 19.8835C0.675524 19.9601 0.836464 20.0001 0.999879 20H6.99988C6.99988 22.217 8.78288 24 10.9999 24C13.2169 24 14.9999 22.217 14.9999 20H20.9999C21.1633 20.0001 21.3242 19.9601 21.4686 19.8835C21.613 19.807 21.7364 19.6962 21.8281 19.561C21.9198 19.4257 21.9769 19.27 21.9944 19.1075C22.012 18.9451 21.9895 18.7808 21.9289 18.629L19.9999 13.803V9C19.9999 6.61305 19.0517 4.32387 17.3638 2.63604C15.676 0.948211 13.3868 0 10.9999 0ZM12.9999 20C12.9999 21.112 12.1119 22 10.9999 22C9.88788 22 8.99988 21.112 8.99988 20H12.9999ZM3.99988 9C3.99988 7.14348 4.73738 5.36301 6.05013 4.05025C7.36289 2.7375 9.14336 2 10.9999 2C12.8564 2 14.6369 2.7375 15.9496 4.05025C17.2624 5.36301 17.9999 7.14348 17.9999 9V13.995C17.9998 14.1221 18.0239 14.248 18.0709 14.366L19.5229 18H2.47688L3.92888 14.366C3.97577 14.2483 3.99987 14.1227 3.99988 13.996V9Z" fill="black"/>
</svg>
