<svg width="49" height="49" viewBox="0 0 49 49" fill="none" xmlns="http://www.w3.org/2000/svg">
<path d="M25.476 47.04C13.046 47.04 2.93213 36.9299 2.93213 24.5C2.93213 12.07 13.046 1.95996 25.476 1.95996C31.1071 1.95996 36.4971 4.04629 40.6583 7.83613L41.4163 8.52902L33.9821 15.9632L33.293 15.3737C31.111 13.5056 28.3356 12.4758 25.476 12.4758C18.8457 12.4758 13.448 17.8697 13.448 24.5C13.448 31.1303 18.8457 36.5241 25.476 36.5241C30.2573 36.5241 34.0357 34.0818 35.8157 29.9206H24.496V19.7722L46.5957 19.8029L46.7603 20.58C47.9126 26.0504 46.99 34.0971 42.3197 39.8546C38.4533 44.6206 32.7877 47.04 25.476 47.04Z" fill="#84418A"/>
</svg>
