<svg width="65" height="65" viewBox="0 0 65 65" fill="none" xmlns="http://www.w3.org/2000/svg">
<path d="M56.875 50.1041C56.875 53.8443 53.8443 56.875 50.1041 56.875H14.8958C11.157 56.875 8.125 53.8443 8.125 50.1041V14.8958C8.125 11.1556 11.157 8.125 14.8958 8.125H50.1041C53.8443 8.125 56.875 11.1556 56.875 14.8958V50.1041Z" fill="#84418A"/>
<path d="M48.6647 24.4307C48.727 24.2262 48.7568 24.0366 48.7486 23.8673C48.7283 23.3771 48.3911 23.021 47.5976 23.021H44.0524C43.1573 23.021 42.7443 23.5627 42.5032 24.1057C42.5032 24.1057 40.2932 28.6543 37.746 31.6538C36.92 32.5218 36.5002 32.5002 36.0533 32.5002C35.8136 32.5002 35.2083 32.2104 35.2083 31.4155V24.3941C35.2083 23.4543 34.9741 23.021 34.2171 23.021H27.9216C27.3704 23.021 27.0833 23.4543 27.0833 23.889C27.0833 24.7922 28.2994 25.0089 28.4375 27.5398V32.446C28.4375 33.6377 28.2303 33.8543 27.7834 33.8543C26.5782 33.8543 24.2057 29.7918 22.6173 24.4672C22.2733 23.4191 21.9294 23.021 21.0343 23.021H17.4552C16.422 23.021 16.25 23.5275 16.25 24.0691C16.25 25.0455 17.0625 30.324 21.4974 36.3934C24.7135 40.7944 28.9507 43.3335 32.7018 43.3335C34.9741 43.3335 35.207 42.7553 35.207 41.852V37.8274C35.2083 36.7428 35.4561 36.5627 36.1793 36.5627C36.6952 36.5627 37.7474 36.9012 39.7786 39.271C42.1213 42.0037 42.5465 43.3335 43.8899 43.3335H47.4351C48.2584 43.3335 48.731 42.9882 48.75 42.3179C48.754 42.1472 48.7297 41.9563 48.6741 41.7437C48.4114 40.9637 47.2062 39.057 45.7031 37.2397C44.8703 36.2336 44.0483 35.2369 43.6705 34.6953C43.4173 34.3418 43.3211 34.0927 43.3333 33.8543C43.3455 33.6038 43.4755 33.3655 43.6705 33.0323C43.6353 33.0323 48.2178 26.5987 48.6647 24.4307Z" fill="white"/>
</svg>
